<svg xmlns="http://www.w3.org/2000/svg" viewBox="0 0 140.51 140.5"><title>development-item</title><g id="Calque_2" data-name="Calque 2"><g id="Calque_1-2" data-name="Calque 1"><path d="M133.73,140.5H6.78A6.78,6.78,0,0,1,0,133.72V6.78A6.79,6.79,0,0,1,6.78,0h127a6.78,6.78,0,0,1,6.78,6.78V133.72A6.77,6.77,0,0,1,133.73,140.5ZM5.8,29.24c0,.56-.07,1.05-.07,1.53q0,51.15,0,102.29c0,1.37.37,1.73,1.73,1.73q62.84-.06,125.66,0c1.39,0,1.73-.39,1.72-1.74q0-51.08,0-102.14V29.24Zm129-6V7.72c0-2,0-2-2-2H25.19c-5.91,0-11.81,0-17.72,0-1.47,0-1.8.44-1.78,1.84.09,4.66,0,9.33,0,14v1.7Z"/><path d="M75.51,85.81l34.76,34.75-4.24,4L71.4,89.89C64,95.65,55.86,97.8,46.84,96A28.34,28.34,0,0,1,29.17,84.8a29.31,29.31,0,1,1,46.34,1Zm-22.91,5A23.47,23.47,0,1,0,29.19,67.2,23.56,23.56,0,0,0,52.6,90.76Z"/><rect x="11.67" y="11.66" width="67.27" height="5.74"/><rect x="105.49" y="11.67" width="8.68" height="5.71"/><rect x="120.23" y="11.65" width="8.61" height="5.73"/><rect x="90.91" y="11.65" width="8.59" height="5.72"/></g></g></svg>