<svg xmlns="http://www.w3.org/2000/svg" viewBox="0 0 409.7 409.81"><defs><style>.cls-1{fill:#fff;}</style></defs><title>instagram</title><g id="Calque_2" data-name="Calque 2"><g id="Calque_1-2" data-name="Calque 1"><path d="M306.4,409.81H103.2c-4.33-.66-8.72-1.07-13-2C45,397.51,15.9,370.07,3.37,325.37c-1.7-6.09-2.27-12.5-3.37-18.76V103.41c.24-1.42.56-2.83.71-4.26C1.9,88.08,4.39,77.26,9.15,67.24,29.69,24.07,64,1,111.82.39c62-.75,124-.2,186-.17,19.42,0,37.93,4.22,54.7,14.1,37.54,22.12,56.77,55.28,57,98.84.33,61.19.15,122.39,0,183.59a108.13,108.13,0,0,1-2.09,23c-10.09,45.17-37.63,74.13-82.2,86.64C319.11,408.14,312.68,408.71,306.4,409.81ZM385.6,205c0-30.53.12-61.06-.09-91.58a94.17,94.17,0,0,0-2-20.62c-9.65-41.5-43.77-68.51-86.31-68.56q-92.38-.1-184.76.07a88.91,88.91,0,0,0-19.82,2C51.08,36,24.08,70.1,24,112.64q-.11,92.38.06,184.77A92.4,92.4,0,0,0,26,316.85c9,40.92,43.61,68.81,85.65,68.92,62.12.16,124.24.05,186.36,0,12.55,0,24.75-2.16,36.05-7.66,33.63-16.34,51-43.43,51.47-80.76C385.94,266.59,385.6,235.79,385.6,205Z"/><path class="cls-1" d="M0,306.61c1.1,6.26,1.67,12.67,3.37,18.76C15.9,370.07,45,397.51,90.22,407.78c4.26,1,8.65,1.37,13,2H0Z"/><path d="M204.89,317c-61.48.1-112-50.3-112.08-111.9S143.12,93.13,204.71,93s112,50.31,112.08,111.9S266.48,316.89,204.89,317Zm87.88-111.64c.33-48.25-39.23-88.08-87.72-88.32-48.15-.24-87.7,39-88.22,87.42-.51,48.19,38.94,88.09,87.52,88.52C252.57,293.41,292.44,253.9,292.77,205.36Z"/><path d="M319.5,119.4a33.09,33.09,0,1,1,33.09-33.09C352.61,104.27,337.52,119.37,319.5,119.4Zm.16-42.07a9,9,0,1,0,8.82,9.08A9.27,9.27,0,0,0,319.66,77.33Z"/></g></g></svg>