<svg xmlns="http://www.w3.org/2000/svg" viewBox="0 0 140.5 140.5"><title>logo-item</title><g id="Calque_2" data-name="Calque 2"><g id="Calque_1-2" data-name="Calque 1"><path d="M140.5,11.8V128.7a4.6,4.6,0,0,0-.25.61,12.83,12.83,0,0,1-5.5,8.51,41.14,41.14,0,0,1-6.05,2.68H11.8a31.53,31.53,0,0,1-4-1.41C2.57,136.42,0,132,0,126.15Q0,70.24,0,14.35c0-.45,0-.91,0-1.37A14,14,0,0,1,4.85,3.32c2-1.79,4.48-2.55,7-3.32H128.7a3.14,3.14,0,0,0,.61.25,12.86,12.86,0,0,1,8.51,5.5A41.62,41.62,0,0,1,140.5,11.8ZM5.49,70.26v55.56c0,5.83,3.36,9.19,9.19,9.19H125.79c5.91,0,9.22-3.34,9.23-9.29v-111c0-5.92-3.34-9.26-9.26-9.26h-111c-6,0-9.3,3.32-9.3,9.36Z"/><path d="M90,122.39c-2.56,0-5.13,0-7.69,0a3.22,3.22,0,0,1-3.05-1.69q-9.64-16.11-19.33-32.2a3.2,3.2,0,0,1,0-3.6q16.24-27,32.45-54.07a3.33,3.33,0,0,1,3.15-1.76q7.55,0,15.09,0c1.31,0,2.48.19,3.2,1.41s.24,2.34-.43,3.46Q97.9,59.68,82.44,85.41a2.15,2.15,0,0,0,0,2.56c6,9.85,11.87,19.74,17.8,29.61.62,1,1.1,2,.5,3.21a2.83,2.83,0,0,1-2.79,1.6C95.25,122.38,92.6,122.39,90,122.39Zm16.57-87.81c-3.14,0-6,0-8.9,0a1.69,1.69,0,0,0-1.72,1c-2.15,3.67-4.35,7.3-6.54,11Q77.62,66.05,65.86,85.62a1.72,1.72,0,0,0-.08,2.08c5.71,9.42,11.35,18.88,17,28.31.23.37.69.84,1.05.85,3.09.07,6.19,0,9.48,0l-.82-1.45c-5.2-8.66-10.35-17.34-15.63-25.95a4.62,4.62,0,0,1,0-5.51C86.53,68,96.09,52,105.68,36.05,105.93,35.63,106.17,35.2,106.52,34.58Z"/><path d="M37.32,45.55c2.6,0,5.21,0,7.81,0a3.2,3.2,0,0,1,3,1.62Q54.72,57.8,61.38,68.42a3.17,3.17,0,0,1,0,3.7Q54.72,82.68,48.14,93.26a3.3,3.3,0,0,1-3,1.7c-5.16,0-10.32,0-15.49,0a3,3,0,0,1-2.89-1.45A2.91,2.91,0,0,1,27,90.3C31,84,34.92,77.67,38.91,71.39a1.82,1.82,0,0,0,0-2.3C35,62.92,31.12,56.71,27.23,50.52c-.71-1.13-1.27-2.26-.51-3.57s2-1.43,3.33-1.41C32.48,45.58,34.9,45.55,37.32,45.55ZM34.11,89.46c3.28,0,6.37,0,9.46,0a1.44,1.44,0,0,0,.89-.67Q50,79.88,55.55,71a1.64,1.64,0,0,0,0-1.42q-5.51-8.92-11.1-17.78a1.54,1.54,0,0,0-1-.69c-3.05-.06-6.1,0-9.35,0,.34.6.57,1,.82,1.44,3.25,5.19,6.46,10.4,9.76,15.55a3.65,3.65,0,0,1,0,4.42C41.4,77.6,38.19,82.81,35,88,34.69,88.41,34.46,88.84,34.11,89.46Z"/><path d="M64.76,11.8H91.11a8.79,8.79,0,0,1,1.36,0,2.71,2.71,0,0,1,0,5.39,9,9,0,0,1-1.37.05h-53c-2.23,0-3.55-1-3.55-2.75s1.32-2.74,3.55-2.74Z"/><path d="M103.18,17.27a2.83,2.83,0,0,1-2.72-2.73,2.73,2.73,0,1,1,5.45,0A2.83,2.83,0,0,1,103.18,17.27Z"/></g></g></svg>