<svg xmlns="http://www.w3.org/2000/svg" viewBox="0 0 146.1 133.99"><title>webdesign-item</title><g id="Calque_2" data-name="Calque 2"><g id="Calque_1-2" data-name="Calque 1"><path d="M80.74,110.49c.85,7.45,3.81,13.36,10.14,17.3a23.25,23.25,0,0,0,2.86,1.45c1.33.57,2.13,1.46,1.78,3S94.06,134,92.7,134q-17,0-34,0h-15c-1.89,0-2.8-.57-3.07-1.87s.32-2.21,2-3c7.73-3.43,11.52-9.68,12.7-17.78a5,5,0,0,0,0-.88H53.5c-13.72,0-27.43-.15-41.15.07A12,12,0,0,1,0,98.19C.15,73.46.06,48.73.06,24c0-7.65,4.74-12.36,12.44-12.36q52.77,0,105.55,0a3.82,3.82,0,0,0,3-1.28c2.61-2.73,5.3-5.37,8-8,3.18-3.14,7.23-3.13,10.43,0,1.5,1.46,3,2.93,4.43,4.44a6.91,6.91,0,0,1-.08,10.11q-3.3,3.41-6.71,6.7a3,3,0,0,0-1,2.41q0,36.18,0,72.36c0,6.12-3.52,10.7-9.16,11.88a16.15,16.15,0,0,1-3.19.21q-20.5,0-41,0ZM114.85,16.9l-.27-.54h-102c-5.33,0-7.88,2.54-7.88,7.86V98c0,5.3,2.59,7.87,7.9,7.87H123.52c5.43,0,8-2.52,8-7.93q0-33.27,0-66.54v-2c-.69.67-1.1,1-1.49,1.43q-19.52,19.53-39.06,39a5.54,5.54,0,0,1-2.54,1.51c-4.29.89-8.6,1.65-12.92,2.39-2.32.39-3.53-.88-3.11-3.17.75-4.11,1.45-8.23,2.33-12.31a6.66,6.66,0,0,1,1.65-3.11q18.53-18.67,37.17-37.24A12,12,0,0,1,114.85,16.9ZM88.73,65.67c.41-.5.77-1,1.19-1.42l42-42c2.85-2.85,5.7-5.68,8.54-8.54,1.34-1.36,1.34-2.46,0-3.84S138,7.45,136.76,6.23c-2-2-2.9-2-4.94,0L81.55,56.52c-.34.35-.67.72-1,1Zm-4.12,63.47c-6-7.53-6.06-7.52-8.41-17.8-.23-1-.84-.85-1.48-.85-4.39,0-8.77,0-13.16,0-1.12,0-1.43.34-1.57,1.44A28.07,28.07,0,0,1,54.29,126c-.81,1-1.72,2-2.72,3.1Zm-7.1-60.55,5.8-1.06-4.7-4.79C78.26,64.61,77.9,66.48,77.51,68.59Z"/><path d="M35.94,63.71c-.32-3.34-.28-6.76-1-10A17.91,17.91,0,0,0,18.4,40.31c-2-.09-4.07,0-6.11-.06-1.86,0-3-.93-3-2.37s1.13-2.35,3-2.35c3.92,0,7.84-.19,11.67,1a23.2,23.2,0,0,1,16.4,22c.06,3.77,0,7.55,0,11.32,0,6.29,4.18,10.58,10.46,10.74a21.4,21.4,0,0,0,5.31-.38,10,10,0,0,0,7.61-8.59c.07-.55.1-1.11.19-1.67a2.19,2.19,0,0,1,2.32-2,2.15,2.15,0,0,1,2.26,2.2,18,18,0,0,1-.81,4.93,14.37,14.37,0,0,1-12.16,10c-3.66.53-7.37.54-10.81-1-5.93-2.75-8.93-7.51-9.11-14-.06-2.09,0-4.18,0-6.27Z"/></g></g></svg>